<svg xmlns="http://www.w3.org/2000/svg" width="23" height="12" viewBox="0 0 23 12" fill="none">
<path d="M1 5.225C0.571979 5.225 0.225 5.57198 0.225 6C0.225 6.42802 0.571979 6.775 1 6.775L1 5.225ZM22.548 6.54801C22.8507 6.24535 22.8507 5.75465 22.548 5.45199L17.6159 0.519924C17.3133 0.217268 16.8226 0.217267 16.5199 0.519924C16.2173 0.82258 16.2173 1.31328 16.5199 1.61594L20.904 6L16.5199 10.3841C16.2173 10.6867 16.2173 11.1774 16.5199 11.4801C16.8226 11.7827 17.3133 11.7827 17.6159 11.4801L22.548 6.54801ZM1 6.775L22 6.775L22 5.225L1 5.225L1 6.775Z" fill="white"/>
</svg>
