<svg width="25" height="24" viewBox="0 0 25 24" fill="none" xmlns="http://www.w3.org/2000/svg">
<path d="M13.6188 0V1.65434C15.2652 1.65434 16.7917 2.06993 18.1983 2.9011C19.5729 3.7003 20.6598 4.78721 21.459 6.16184C22.2902 7.56843 22.7058 9.0949 22.7058 10.7413H24.3601C24.3601 8.80719 23.8726 7.001 22.8976 5.32268C21.9385 3.70829 20.6518 2.42158 19.0374 1.46254C17.3591 0.487513 15.5529 0 13.6188 0ZM5.05941 2.49351C4.59587 2.49351 4.18828 2.63736 3.83663 2.92508V2.9011L1.19927 5.63437L1.24722 5.56244C0.975492 5.81818 0.759708 6.11788 0.599868 6.46154C0.440028 6.80519 0.360107 7.16883 0.360107 7.55245C0.360107 7.87213 0.416051 8.18382 0.52794 8.48751V8.46354C0.991476 9.82218 1.63883 11.2048 2.47 12.6114C3.60486 14.5614 4.94352 16.3077 6.48598 17.8501C8.02844 19.3926 9.79068 20.7393 11.7727 21.8901C13.0354 22.6094 14.4021 23.2567 15.8726 23.8322L15.9205 23.8561C16.2083 23.952 16.5199 24 16.8556 24C17.5909 24 18.2382 23.7602 18.7977 23.2807H18.7737L21.3871 20.6673C21.7387 20.3317 21.9146 19.9041 21.9146 19.3846C21.9146 18.8651 21.7387 18.4376 21.3871 18.1019L18.0065 14.7213C17.6548 14.3696 17.2232 14.1938 16.7118 14.1938C16.2003 14.1938 15.7687 14.3696 15.4171 14.7213L13.7867 16.3516C12.492 15.7283 11.3611 14.957 10.3941 14.038C9.42704 13.1189 8.65581 11.996 8.08039 10.6693L9.73473 9.01499C9.97449 8.77522 10.1383 8.49151 10.2262 8.16384C10.3142 7.83616 10.3102 7.51249 10.2143 7.19281C10.1183 6.87313 9.93453 6.6014 9.6628 6.37762L9.73473 6.44955L6.28219 2.9011C5.93054 2.62937 5.52294 2.49351 5.05941 2.49351ZM13.6188 3.30869V4.96304C14.6578 4.96304 15.6208 5.22278 16.508 5.74226C17.3951 6.26174 18.0984 6.96503 18.6178 7.85215C19.1373 8.73926 19.3971 9.7023 19.3971 10.7413H21.0514C21.0514 9.3986 20.7158 8.15185 20.0444 7.001C19.3891 5.88212 18.494 4.98701 17.3591 4.31568C16.2083 3.64436 14.9615 3.30869 13.6188 3.30869ZM5.05941 4.12388C5.12334 4.12388 5.17929 4.14785 5.22724 4.1958L8.63184 7.67233C8.64782 7.73626 8.62384 7.79221 8.55991 7.84016L6.11435 10.2857L6.30616 10.7892L6.49797 11.2208C6.65781 11.5724 6.83363 11.9321 7.02544 12.2997C7.31315 12.8112 7.61685 13.2907 7.93653 13.7383C8.35212 14.2977 8.78368 14.7932 9.23124 15.2248C9.82265 15.7842 10.494 16.3117 11.2452 16.8072C11.7887 17.1748 12.3481 17.5025 12.9235 17.7902L13.6188 18.1259L14.1223 18.3417L16.6398 15.8242C16.6718 15.7922 16.6958 15.7762 16.7118 15.7762C16.7277 15.7762 16.7517 15.7922 16.7837 15.8242L20.2602 19.3247C20.3082 19.3566 20.3321 19.3766 20.3321 19.3846C20.3321 19.3926 20.3082 19.4206 20.2602 19.4685L17.6948 22.034C17.3271 22.3536 16.9116 22.4336 16.448 22.2737C15.0574 21.7303 13.7627 21.1149 12.5639 20.4276C10.7257 19.3566 9.08738 18.1059 7.64882 16.6753C6.21026 15.2448 4.95551 13.6024 3.88458 11.7483C3.10137 10.4216 2.50197 9.14286 2.08638 7.91209L2.06241 7.88811C1.99847 7.72827 1.99048 7.54445 2.03843 7.33666C2.08638 7.12887 2.18229 6.96104 2.32614 6.83317L4.89158 4.1958C4.93953 4.16384 4.99547 4.13986 5.05941 4.12388ZM13.6188 6.61738V8.27173C14.0664 8.27173 14.478 8.38362 14.8536 8.60739C15.2292 8.83117 15.5289 9.13087 15.7527 9.50649C15.9765 9.88212 16.0884 10.2937 16.0884 10.7413H17.7427C17.7427 9.99001 17.5589 9.2987 17.1913 8.66733C16.8236 8.03596 16.3241 7.53646 15.6928 7.16883C15.0614 6.8012 14.3701 6.61738 13.6188 6.61738Z" fill="#C7A167"/>
</svg>
