<svg xmlns="http://www.w3.org/2000/svg" width="13" height="15" viewBox="0 0 13 15" fill="none">
<path d="M6.22866 11.9226C6.40582 11.9226 6.555 11.862 6.67621 11.7408C6.79742 11.6196 6.85803 11.4727 6.85803 11.3002C6.85803 11.1277 6.79742 10.9809 6.67621 10.8597C6.555 10.7384 6.40582 10.6778 6.22866 10.6778C6.06083 10.6778 5.9163 10.7384 5.79509 10.8597C5.67388 10.9809 5.61327 11.1277 5.61327 11.3002C5.61327 11.4727 5.67388 11.6196 5.79509 11.7408C5.9163 11.862 6.06083 11.9226 6.22866 11.9226ZM9.34754 11.9226C9.51537 11.9226 9.65989 11.862 9.78111 11.7408C9.90232 11.6196 9.96292 11.4727 9.96292 11.3002C9.96292 11.1277 9.90232 10.9809 9.78111 10.8597C9.65989 10.7384 9.51537 10.6778 9.34754 10.6778C9.17038 10.6778 9.0212 10.7384 8.89999 10.8597C8.77878 10.9809 8.71817 11.1277 8.71817 11.3002C8.71817 11.4727 8.77878 11.6196 8.89999 11.7408C9.0212 11.862 9.17038 11.9226 9.34754 11.9226ZM9.34754 9.43309C9.34754 9.43309 9.3522 9.43309 9.36153 9.43309C9.53868 9.43309 9.68787 9.37248 9.80908 9.25127C9.93029 9.13006 9.9909 8.9832 9.9909 8.81071C9.9909 8.63822 9.93029 8.49136 9.80908 8.37015C9.68787 8.24894 9.53868 8.18833 9.36153 8.18833H9.34754C9.17971 8.19766 9.03752 8.26059 8.92097 8.37714C8.80442 8.49369 8.74614 8.63589 8.74614 8.80372C8.74614 8.97155 8.80442 9.11607 8.92097 9.23728C9.03752 9.3585 9.17971 9.42376 9.34754 9.43309ZM6.22866 9.43309C6.23798 9.43309 6.24731 9.43309 6.25663 9.43309C6.42446 9.43309 6.57132 9.37248 6.69719 9.25127C6.82306 9.13006 6.886 8.9832 6.886 8.81071C6.886 8.63822 6.82306 8.49136 6.69719 8.37015C6.57132 8.24894 6.42446 8.18833 6.25663 8.18833H6.22866C6.06083 8.19766 5.91864 8.26059 5.80209 8.37714C5.68554 8.49369 5.62726 8.63589 5.62726 8.80372C5.62726 8.97155 5.68554 9.11607 5.80209 9.23728C5.91864 9.3585 6.06083 9.42376 6.22866 9.43309ZM10.5923 1.96456H9.96292V1.34917C9.96292 1.17202 9.90232 1.02283 9.78111 0.90162C9.65989 0.780408 9.51304 0.719802 9.34055 0.719802C9.16805 0.719802 9.0212 0.780408 8.89999 0.90162C8.77878 1.02283 8.71817 1.17202 8.71817 1.34917V1.96456H3.73915V1.34917C3.73915 1.18134 3.67854 1.03915 3.55733 0.922599C3.43612 0.806049 3.2916 0.747774 3.12376 0.747774C2.95593 0.747774 2.81141 0.806049 2.6902 0.922599C2.56899 1.03915 2.50372 1.17668 2.49439 1.33519V1.96456H1.87901C1.54334 1.96456 1.23099 2.04847 0.941946 2.21631C0.652901 2.38414 0.424463 2.61024 0.256631 2.89463C0.0887989 3.17901 0.00488281 3.48903 0.00488281 3.8247V12.538C0.00488281 12.883 0.0887989 13.1977 0.256631 13.482C0.424463 13.7664 0.652901 13.9925 0.941946 14.1604C1.23099 14.3282 1.54334 14.4121 1.87901 14.4121H10.5923C10.928 14.4121 11.238 14.3282 11.5224 14.1604C11.8067 13.9925 12.0329 13.7664 12.2007 13.482C12.3685 13.1977 12.4524 12.883 12.4524 12.538V3.8247C12.4524 3.48903 12.3685 3.17901 12.2007 2.89463C12.0329 2.61024 11.8067 2.38414 11.5224 2.21631C11.238 2.04847 10.928 1.96456 10.5923 1.96456ZM11.2077 12.538C11.2077 12.7151 11.1471 12.8643 11.0259 12.9855C10.9046 13.1067 10.7601 13.1674 10.5923 13.1674H1.87901C1.70185 13.1674 1.55267 13.1067 1.43146 12.9855C1.31024 12.8643 1.24964 12.7151 1.24964 12.538V6.94358H11.2077V12.538ZM11.2077 5.69882H1.24964V3.8247C1.24964 3.65687 1.31024 3.51234 1.43146 3.39113C1.55267 3.26992 1.70185 3.20931 1.87901 3.20931H2.49439V3.85267C2.49439 4.02983 2.555 4.17901 2.67621 4.30022C2.79742 4.42143 2.94428 4.48204 3.11677 4.48204C3.28927 4.48204 3.43612 4.42143 3.55733 4.30022C3.67854 4.17901 3.73915 4.02983 3.73915 3.85267V3.8247V3.20931H8.71817V3.8247C8.71817 4.00185 8.77878 4.15104 8.89999 4.27225C9.0212 4.39346 9.16805 4.45407 9.34055 4.45407C9.51304 4.45407 9.65989 4.39346 9.78111 4.27225C9.90232 4.15104 9.96292 4.00185 9.96292 3.8247V3.20931H10.5923C10.7601 3.20931 10.9046 3.26992 11.0259 3.39113C11.1471 3.51234 11.2077 3.65687 11.2077 3.8247V5.69882ZM3.12376 9.43309C3.12376 9.43309 3.13309 9.43309 3.15174 9.43309C3.31957 9.43309 3.46409 9.37248 3.5853 9.25127C3.70651 9.13006 3.76712 8.9832 3.76712 8.81071C3.76712 8.63822 3.70651 8.49136 3.5853 8.37015C3.46409 8.24894 3.31957 8.18833 3.15174 8.18833H3.12376C2.95593 8.19766 2.81374 8.26059 2.69719 8.37714C2.58064 8.49369 2.52237 8.63589 2.52237 8.80372C2.52237 8.97155 2.58064 9.11607 2.69719 9.23728C2.81374 9.3585 2.95593 9.42376 3.12376 9.43309ZM3.12376 11.9226C3.2916 11.9226 3.43612 11.862 3.55733 11.7408C3.67854 11.6196 3.73915 11.4727 3.73915 11.3002C3.73915 11.1277 3.67854 10.9809 3.55733 10.8597C3.43612 10.7384 3.2916 10.6778 3.12376 10.6778C2.94661 10.6778 2.79742 10.7384 2.67621 10.8597C2.555 10.9809 2.49439 11.1277 2.49439 11.3002C2.49439 11.4727 2.555 11.6196 2.67621 11.7408C2.79742 11.862 2.94661 11.9226 3.12376 11.9226Z" fill="white"/>
</svg>