<svg xmlns="http://www.w3.org/2000/svg" width="13.209" height="13.101" viewBox="0 0 13.209 13.101">
  <path id="Path_23396" data-name="Path 23396" d="M101.413,2.677,102.575,5a1.436,1.436,0,0,0,.938.693l2.106.35c1.347.225,1.664,1.2.693,2.166l-1.638,1.638a1.435,1.435,0,0,0-.343,1.2l.469,2.027c.369,1.6-.483,2.225-1.9,1.387l-1.975-1.169a1.427,1.427,0,0,0-1.308,0l-1.975,1.169c-1.413.839-2.272.211-1.9-1.387l.469-2.027a1.434,1.434,0,0,0-.343-1.2L94.228,8.211c-.964-.964-.654-1.941.693-2.166l2.107-.35A1.438,1.438,0,0,0,97.959,5l1.162-2.324C99.755,1.416,100.786,1.416,101.413,2.677Z" transform="translate(-93.667 -1.731)" fill="#fdd33e"/>
</svg>
