<svg width="43" height="42" viewBox="0 0 43 42" fill="none" xmlns="http://www.w3.org/2000/svg">
<path d="M40.8676 9.06294L39.9446 8.76923C39.8327 8.76923 39.6928 8.74126 39.525 8.68531C39.3572 8.62937 39.2313 8.6014 39.1474 8.6014C38.56 8.6014 38.0285 8.78322 37.553 9.14685C37.0774 9.51049 36.7558 9.95804 36.5879 10.4895L35.9586 12.2517V10.8252C35.9586 10.7133 35.8467 10.5455 35.6229 10.3217L25.1334 0.167831C25.0215 0.0559464 24.8676 0 24.6718 0H4.28023C4.05646 0 3.89562 0.0629387 3.79771 0.188812C3.69981 0.314686 3.65086 0.46154 3.65086 0.629372V2.55944H1.25925C1.09142 2.55944 0.944568 2.62238 0.818694 2.74825C0.69282 2.87413 0.629883 3.02098 0.629883 3.18881V41.3706C0.629883 41.5385 0.69282 41.6853 0.818694 41.8112C0.944568 41.9371 1.09142 42 1.25925 42H32.3082C32.4481 42 32.5879 41.9371 32.7278 41.8112C32.8676 41.6853 32.9376 41.5385 32.9376 41.3706V39.4406H35.3292C35.469 39.4406 35.6089 39.3776 35.7488 39.2517C35.8886 39.1259 35.9586 38.979 35.9586 38.8112V30.2098L37.7208 27.8601V27.6923L42.4621 12.4196C42.7138 11.7203 42.6788 11.049 42.3572 10.4056C42.0355 9.76224 41.539 9.31469 40.8676 9.06294ZM25.3012 2.22378L33.5669 10.1958H25.3012V2.22378ZM31.6369 40.7413H1.88862V3.81818H3.65086V38.6434C3.65086 38.8112 3.72079 38.965 3.86065 39.1049C4.00051 39.2448 4.14037 39.3147 4.28023 39.3147H31.6369V40.7413ZM34.6579 38.1818H4.9096V1.25874H24.1683V10.8252C24.1683 10.965 24.2383 11.1049 24.3781 11.2448C24.518 11.3846 24.6579 11.4545 24.7977 11.4545H34.6579V16.2378L31.6369 25.5944L31.8047 33.9021C31.8047 34.042 31.8467 34.1608 31.9306 34.2587C32.0145 34.3566 32.1404 34.4476 32.3082 34.5315C32.504 34.5315 32.6579 34.5105 32.7697 34.4685C32.8816 34.4266 32.9376 34.3357 32.9376 34.1958L34.6579 31.972V38.1818ZM32.9376 31.972L32.7697 26.7273L35.9586 27.6923L32.9376 31.972ZM41.3711 11.9161L36.7558 26.5594L33.0634 25.3007L37.6788 10.8252C37.8467 10.4895 38.0914 10.2238 38.4131 10.028C38.7348 9.83217 39.0774 9.77622 39.4411 9.86014L40.4061 10.1958C40.7977 10.3357 41.0774 10.5734 41.2453 10.9091C41.4131 11.2448 41.4551 11.5804 41.3711 11.9161ZM9.23128 11.4545H18.4621C18.6019 11.4545 18.7418 11.3916 18.8816 11.2657C19.0215 11.1399 19.0914 10.993 19.0914 10.8252V4.27972C19.0914 4.13986 19.0215 4 18.8816 3.86014C18.7418 3.72028 18.6019 3.65035 18.4621 3.65035H9.23128C9.06345 3.65035 8.9166 3.72028 8.79072 3.86014C8.66485 4 8.60191 4.13986 8.60191 4.27972V10.8252C8.60191 10.993 8.66485 11.1399 8.79072 11.2657C8.9166 11.3916 9.06345 11.4545 9.23128 11.4545ZM9.86065 4.95105H17.7907V10.1958H9.86065V4.95105ZM7.93058 17.4965H27.3572C27.525 17.4965 27.6718 17.4336 27.7977 17.3077C27.9236 17.1818 27.9865 17.035 27.9865 16.8671C27.9865 16.6993 27.9236 16.5524 27.7977 16.4266C27.6718 16.3007 27.525 16.2378 27.3572 16.2378H7.93058C7.79072 16.2378 7.65086 16.3007 7.511 16.4266C7.37114 16.5524 7.30121 16.6993 7.30121 16.8671C7.30121 17.035 7.37114 17.1818 7.511 17.3077C7.65086 17.4336 7.79072 17.4965 7.93058 17.4965ZM7.93058 22.1119H27.3572C27.525 22.1119 27.6718 22.049 27.7977 21.9231C27.9236 21.7972 27.9865 21.6504 27.9865 21.4825C27.9865 21.3147 27.9236 21.1678 27.7977 21.042C27.6718 20.9161 27.525 20.8531 27.3572 20.8531H7.93058C7.79072 20.8531 7.65086 20.9161 7.511 21.042C7.37114 21.1678 7.30121 21.3147 7.30121 21.4825C7.30121 21.6504 7.37114 21.7972 7.511 21.9231C7.65086 22.049 7.79072 22.1119 7.93058 22.1119ZM7.93058 26.7273H27.3572C27.525 26.7273 27.6718 26.6643 27.7977 26.5385C27.9236 26.4126 27.9865 26.2657 27.9865 26.0979C27.9865 25.9301 27.9236 25.7832 27.7977 25.6573C27.6718 25.5315 27.525 25.4685 27.3572 25.4685H7.93058C7.79072 25.4685 7.65086 25.5315 7.511 25.6573C7.37114 25.7832 7.30121 25.9231 7.30121 26.0769C7.30121 26.2308 7.37114 26.3776 7.511 26.5175C7.65086 26.6573 7.79072 26.7273 7.93058 26.7273ZM27.8187 30.7133C27.8187 30.5455 27.7558 30.3986 27.6299 30.2727C27.504 30.1469 27.3572 30.0839 27.1893 30.0839H7.93058C7.79072 30.0839 7.65086 30.1469 7.511 30.2727C7.37114 30.3986 7.30121 30.5385 7.30121 30.6923C7.30121 30.8462 7.37114 30.993 7.511 31.1329C7.65086 31.2727 7.79072 31.3427 7.93058 31.3427H27.3572C27.497 31.3427 27.6089 31.2797 27.6928 31.1538C27.7767 31.028 27.8187 30.8811 27.8187 30.7133ZM30.0425 34.8252H20.518C20.3502 34.8252 20.2033 34.8951 20.0774 35.035C19.9516 35.1748 19.8886 35.3217 19.8886 35.4755C19.8886 35.6294 19.9516 35.7762 20.0774 35.9161C20.2033 36.0559 20.3502 36.1259 20.518 36.1259H30.0425C30.2103 36.1259 30.3641 36.0559 30.504 35.9161C30.6439 35.7762 30.7138 35.6294 30.7138 35.4755C30.7138 35.3217 30.6439 35.1748 30.504 35.035C30.3641 34.8951 30.2103 34.8252 30.0425 34.8252Z" fill="#C7A167"/>
</svg>
