<svg width="43" height="42" viewBox="0 0 43 42" fill="none" xmlns="http://www.w3.org/2000/svg">
<g clip-path="url(#clip0_1_167)">
<path d="M1.46929 7.72024C0.937819 8.25171 0.693064 8.8531 0.735022 9.52443C0.77698 10.1958 1.02174 10.7552 1.46929 11.2028L3.8609 13.5104C5.81894 15.4125 7.81894 17.3846 9.8609 19.4265C9.97278 19.5664 10.1196 19.6363 10.3015 19.6363C10.4833 19.6363 10.6371 19.5734 10.763 19.4475C10.8889 19.3216 10.9518 19.1748 10.9518 19.007V18.965C10.9518 18.7972 10.8819 18.6573 10.742 18.5454L8.64411 16.4475L10.7001 14.3916C10.8119 14.2797 10.8679 14.1398 10.8679 13.972C10.8679 13.8042 10.805 13.6573 10.6791 13.5314C10.5532 13.4056 10.4064 13.3426 10.2385 13.3426C10.0707 13.3426 9.91684 13.3986 9.77698 13.5104L7.76299 15.5244L4.78397 12.6293L9.39936 7.97198C9.53922 7.8601 9.60915 7.71325 9.60915 7.53143C9.60915 7.34961 9.54621 7.19576 9.42034 7.06989C9.29446 6.94401 9.14062 6.88108 8.9588 6.88108C8.77698 6.88108 8.63013 6.951 8.51824 7.09087L3.8609 11.7482L2.35041 10.2797C2.18257 10.1118 2.07069 9.88807 2.01474 9.60835C1.9588 9.24471 2.07069 8.92303 2.35041 8.64331L8.76999 2.22373C8.96579 2.02793 9.17558 1.90205 9.39936 1.84611C9.76299 1.7622 10.0987 1.87408 10.4064 2.18177L10.4483 2.22373C12.742 4.82513 15.4693 7.70625 18.6301 10.8671C18.742 10.979 18.8889 11.0349 19.0707 11.0349C19.2525 11.0349 19.4064 10.972 19.5322 10.8461C19.6581 10.7202 19.721 10.5664 19.721 10.3846C19.721 10.2028 19.6511 10.0559 19.5112 9.94401C17.4693 7.90205 15.4973 5.8601 13.5952 3.81814C12.4203 2.53143 11.6651 1.69226 11.3294 1.30066C10.77 0.741215 10.1546 0.489468 9.48327 0.54541C8.86789 0.601357 8.33642 0.853104 7.88887 1.30066L1.46929 7.72024ZM28.6581 31.4265C28.5182 31.3146 28.3644 31.2587 28.1966 31.2587C28.0287 31.2587 27.8749 31.3146 27.735 31.4265L25.721 33.4825L23.749 31.5104C23.6091 31.3706 23.4553 31.3007 23.2875 31.3007C23.1196 31.3007 22.9728 31.3636 22.8469 31.4895C22.721 31.6153 22.6581 31.7692 22.6581 31.951C22.6581 32.1328 22.714 32.2797 22.8259 32.3916C25.5112 35.0769 28.1546 37.8042 30.756 40.5734L30.9658 40.7412C31.4133 41.2167 31.9728 41.4545 32.6441 41.4545C32.9798 41.4545 33.3084 41.3916 33.6301 41.2657C33.9518 41.1398 34.2105 40.965 34.4063 40.7412L40.8259 34.2797C41.2175 33.8601 41.4273 33.3566 41.4553 32.7692C41.4833 32.1818 41.3015 31.7063 40.9098 31.3426L32.3504 22.7412C32.2105 22.6293 32.0567 22.5734 31.8889 22.5734C31.721 22.5734 31.5742 22.6363 31.4483 22.7622C31.3224 22.8881 31.2595 23.0349 31.2595 23.2028C31.2595 23.3706 31.3154 23.5244 31.4273 23.6643L40.0287 32.2657C40.1406 32.3776 40.1896 32.5524 40.1756 32.7902C40.1616 33.0279 40.0707 33.2167 39.9029 33.3566L33.5252 39.8601C33.3015 40.0559 33.0147 40.1538 32.6651 40.1538C32.3154 40.1538 32.0567 40.0559 31.8889 39.8601L30.3784 38.3076L35.0777 33.6503C35.1896 33.5104 35.2455 33.3566 35.2455 33.1888C35.2455 33.0209 35.1826 32.8741 35.0567 32.7482C34.9308 32.6223 34.777 32.5594 34.5952 32.5594C34.4133 32.5594 34.2665 32.6153 34.1546 32.7272L29.4973 37.3846L26.5182 34.3216L26.6022 34.4056L28.6581 32.3496C28.77 32.2377 28.8259 32.0909 28.8259 31.909C28.8259 31.7272 28.77 31.5664 28.6581 31.4265ZM0.797959 41.2867C0.937819 41.4265 1.09167 41.4965 1.2595 41.4965C1.34341 41.4965 1.41334 41.4825 1.46929 41.4545L14.2665 37.6363C14.3784 37.6083 14.4763 37.5524 14.5602 37.4685L36.4623 15.4405L36.5043 15.3566L41.2036 10.6153C41.5952 10.2237 41.791 9.7552 41.791 9.20975C41.791 8.66429 41.5952 8.19576 41.2036 7.80415L34.4903 1.09087C34.1266 0.72723 33.6581 0.54541 33.0847 0.54541C32.5112 0.54541 32.0427 0.72723 31.6791 1.09087L26.8959 5.87408L26.8539 5.958L4.86789 27.944C4.78397 28 4.72803 28.0839 4.70006 28.1958L0.672085 40.6573C0.644113 40.7132 0.630127 40.7692 0.630127 40.8251C0.630127 41.0209 0.686071 41.1748 0.797959 41.2867ZM27.3574 7.2587L28.7001 8.5594L8.81194 28.5314L6.58817 28.0279L27.3574 7.2587ZM9.60915 29.5384L29.6231 9.48248L32.728 12.5874L12.5462 32.5174H9.60915V29.5384ZM35.0777 14.979L14.2665 35.916L13.5112 33.3566L33.6511 13.5104L35.0777 14.979ZM5.74901 29.1608L8.30845 29.7482V33.1888C8.30845 33.3566 8.37139 33.5035 8.49726 33.6293C8.62313 33.7552 8.78397 33.8181 8.97978 33.8181H12.3364L13.1336 36.6293L2.26649 39.9021L5.74901 29.1608ZM32.6022 2.01394C32.742 1.87408 32.9098 1.80415 33.1057 1.80415C33.3015 1.80415 33.4693 1.87408 33.6091 2.01394L40.3224 8.72723C40.4623 8.86709 40.5322 9.03492 40.5322 9.23072C40.5322 9.42653 40.4623 9.59436 40.3224 9.73422L36.0008 14.0559L28.2805 6.33562L32.6022 2.01394Z" fill="#C7A167"/>
</g>
<defs>
<clipPath id="clip0_1_167">
<rect width="42.02" height="42" fill="white" transform="matrix(1 0 0 -1 0.620117 42)"/>
</clipPath>
</defs>
</svg>
