<svg width="20" height="20" viewBox="0 0 20 20" fill="none" xmlns="http://www.w3.org/2000/svg">
<g clip-path="url(#clip0_1_504)">
<path fill-rule="evenodd" clip-rule="evenodd" d="M9.99415 16.4967C6.40891 16.4967 3.49152 13.5793 3.49152 9.99409C3.49152 6.40885 6.40891 3.49146 9.99415 3.49146C13.5794 3.49146 16.4968 6.40885 16.4968 9.99409C16.4968 13.5793 13.5794 16.4967 9.99415 16.4967Z" fill="#D58A1B"/>
<path fill-rule="evenodd" clip-rule="evenodd" d="M9.99414 2.50732C9.83011 2.50732 9.68951 2.37844 9.68951 2.20269V0.304628C9.68951 0.140598 9.83011 0 9.99414 0C10.1699 0 10.2988 0.140598 10.2988 0.304628V2.20269C10.2988 2.37844 10.1699 2.50732 9.99414 2.50732ZM13.8957 3.55009C13.8371 3.55009 13.7903 3.53837 13.7434 3.51494C13.5911 3.43292 13.5442 3.24546 13.6262 3.10486L14.587 1.45284C14.669 1.30053 14.8565 1.25366 14.9971 1.33568C15.1377 1.41769 15.1963 1.60516 15.1025 1.75747L14.1535 3.39777C14.0949 3.50322 14.0012 3.55009 13.8957 3.55009ZM16.7428 6.4089C16.6374 6.4089 16.5319 6.35032 16.4851 6.25659C16.403 6.10428 16.4499 5.92853 16.5905 5.8348L18.2425 4.88576C18.3831 4.80375 18.5706 4.85062 18.6526 5.00293C18.7346 5.14353 18.6878 5.33099 18.5472 5.41301L16.8951 6.36204C16.8483 6.39719 16.8014 6.4089 16.7428 6.4089ZM19.6954 10.2988H17.7856C17.6216 10.2988 17.481 10.1699 17.481 9.99414C17.481 9.83011 17.6216 9.68951 17.7856 9.68951H19.6954C19.8594 9.68951 20 9.83011 20 9.99414C20 10.1699 19.8594 10.2988 19.6954 10.2988ZM18.3948 15.1494C18.3363 15.1494 18.2894 15.1377 18.2425 15.1025L16.5905 14.1535C16.4499 14.0715 16.403 13.884 16.4851 13.7434C16.5671 13.5911 16.7545 13.5442 16.8951 13.6262L18.5472 14.587C18.6878 14.669 18.7346 14.8565 18.6526 14.9971C18.6057 15.0908 18.5003 15.1494 18.3948 15.1494ZM14.8448 18.6995C14.7393 18.6995 14.6339 18.6409 14.587 18.5472L13.6262 16.8951C13.5442 16.7545 13.5911 16.5671 13.7434 16.4851C13.884 16.403 14.0715 16.4499 14.1535 16.5905L15.1025 18.2425C15.1963 18.3831 15.1377 18.5706 14.9971 18.6526C14.9502 18.6878 14.8916 18.6995 14.8448 18.6995ZM9.99414 20C9.83011 20 9.68951 19.8594 9.68951 19.6954V17.7856C9.68951 17.6216 9.83011 17.481 9.99414 17.481C10.1699 17.481 10.2988 17.6216 10.2988 17.7856V19.6954C10.2988 19.8594 10.1699 20 9.99414 20ZM5.15524 18.6995C5.09666 18.6995 5.0498 18.6878 5.00293 18.6526C4.85062 18.5706 4.80375 18.3831 4.88576 18.2425L5.8348 16.5905C5.92853 16.4499 6.10428 16.3913 6.25659 16.4851C6.39719 16.5671 6.44405 16.7545 6.36204 16.8951L5.41301 18.5472C5.35442 18.6409 5.26069 18.6995 5.15524 18.6995ZM1.60516 15.1494C1.49971 15.1494 1.39426 15.0908 1.33568 14.9971C1.25366 14.8565 1.30053 14.669 1.45284 14.587L3.10486 13.6262C3.24546 13.5442 3.43292 13.5911 3.51494 13.7434C3.59695 13.884 3.55009 14.0715 3.40949 14.1535L1.75747 15.1025C1.7106 15.1377 1.65202 15.1494 1.60516 15.1494ZM2.20269 10.2988H0.304628C0.140598 10.2988 0 10.1699 0 9.99414C0 9.83011 0.140598 9.68951 0.304628 9.68951H2.20269C2.37844 9.68951 2.50732 9.83011 2.50732 9.99414C2.50732 10.1699 2.37844 10.2988 2.20269 10.2988ZM3.25718 6.4089C3.19859 6.4089 3.15173 6.39719 3.10486 6.36204L1.45284 5.41301C1.30053 5.33099 1.25366 5.14353 1.33568 5.00293C1.41769 4.85062 1.60516 4.80375 1.75747 4.88576L3.40949 5.8348C3.55009 5.92853 3.59695 6.10428 3.51494 6.25659C3.45636 6.35032 3.35091 6.4089 3.25718 6.4089ZM6.10428 3.55009C5.99883 3.55009 5.89338 3.50322 5.8348 3.40949L4.88576 1.75747C4.80375 1.60516 4.85062 1.41769 5.00293 1.33568C5.14353 1.25366 5.33099 1.30053 5.41301 1.45284L6.36204 3.10486C6.44405 3.24546 6.39719 3.43292 6.25659 3.51494C6.20972 3.53837 6.15114 3.55009 6.10428 3.55009Z" fill="#FF9D05"/>
<path fill-rule="evenodd" clip-rule="evenodd" d="M12.1969 13.6848C12.1617 13.6848 12.1266 13.6848 12.0914 13.6614L9.99416 12.853L7.90863 13.6614C7.8149 13.7083 7.69773 13.6848 7.61572 13.6263C7.5337 13.5677 7.48683 13.4739 7.49855 13.3685L7.62743 11.1307L6.19802 9.39662C6.13944 9.3146 6.11601 9.20915 6.15116 9.1037C6.18631 9.00997 6.25661 8.92796 6.36205 8.90452L8.5296 8.34213L9.74811 6.44407C9.79498 6.36205 9.90043 6.31519 9.99416 6.31519C10.0996 6.31519 10.1933 6.36205 10.2519 6.44407L11.4704 8.34213L13.638 8.90452C13.7317 8.92796 13.8137 9.00997 13.8489 9.1037C13.884 9.20915 13.8606 9.3146 13.7903 9.39662L12.3726 11.1307L12.5015 13.3685C12.5015 13.4739 12.4546 13.5677 12.3726 13.6263C12.3257 13.6731 12.2554 13.6848 12.1969 13.6848Z" fill="white"/>
</g>
<defs>
<clipPath id="clip0_1_504">
<rect width="20" height="20" fill="white"/>
</clipPath>
</defs>
</svg>
