<svg width="257" height="101" viewBox="0 0 257 101" fill="none" xmlns="http://www.w3.org/2000/svg">
<path d="M21.8867 61.3469H31.0397V60.9319C30.3142 60.0699 29.7279 56.9592 29.7279 51.8834V44.6285C31.4546 44.1118 33.5267 44.5937 34.0782 45.7689C33.872 46.0795 33.7328 46.6658 33.7328 47.1155C33.7328 47.8758 33.9764 48.877 34.5627 48.877C35.149 48.877 35.3926 47.8758 35.3926 47.1155C35.3926 46.6658 35.2534 46.0795 35.0473 45.7689C35.5987 44.6285 37.5691 44.144 39.2958 44.6285V51.8834C39.2958 56.9592 38.7068 60.0699 37.9813 60.9319V61.3469H47.1022V60.9319C46.3767 60.0699 45.7877 56.9592 45.7877 51.8834V46.631C45.7877 41.5204 46.3767 38.4471 47.1022 37.5824V37.1675H37.9813V37.5824C38.5007 38.2731 38.9156 40.1042 39.1218 43.0731C37.3255 42.6957 35.2534 43.5577 34.7019 45.2844H34.4235C33.872 43.4881 31.6956 42.5913 29.8644 43.041C30.0732 40.1042 30.5203 38.2383 31.0397 37.5824V37.1675H21.8867V37.5824C22.6122 38.4471 23.1985 41.5204 23.1985 46.631V51.8834C23.1985 56.9592 22.6122 60.0699 21.8867 60.9319V61.3469Z" fill="#C7A167"/>
<path d="M53.2826 71.3296C56.7013 71.3296 58.3932 67.8762 59.8442 63.4188L64.1971 50.6384C65.8194 45.56 67.7201 43.5924 68.791 42.7973V42.3823H64.8878V42.7973C65.3723 43.662 64.9922 45.5948 63.4368 50.6384L61.2255 56.9938H60.8454L58.7037 50.6384C57.151 45.5948 57.2876 43.662 57.7373 42.7973V42.3823H48.7584V42.7973C50.2763 43.662 51.6228 48.1166 52.5223 50.6384L55.9062 61.3468H59.8442L59.1187 63.384C57.9809 66.7358 56.7361 69.4637 54.49 69.4637C52.8677 69.4637 51.8665 68.5321 51.8665 67.1507C51.8665 66.0103 52.592 65.25 53.5584 65.25C54.3883 65.25 55.079 65.9755 54.905 66.9767H55.1807C55.2851 66.8054 55.526 66.3208 55.526 65.7693C55.526 63.8338 54.2143 62.7282 52.4527 62.7282C50.0353 62.7282 48.239 64.1791 48.239 66.8054C48.239 69.4637 50.2067 71.3296 53.2826 71.3296Z" fill="#C7A167"/>
<path d="M78.3215 61.7964C81.6732 61.7964 84.0558 60.1714 85.1267 56.892H85.5416C85.7477 60.1045 87.3379 61.7964 90.1355 61.7964C92.6573 61.7964 93.8325 59.7913 94.1083 57.2695L93.7629 57.2026C93.5889 57.928 93.1418 58.5143 92.4512 58.5143C91.4472 58.5143 90.8958 57.4087 90.8958 55.7864V35.4753H90.5156C89.0298 36.5114 86.4411 37.028 84.2994 37.0977V37.443C84.9205 38.032 85.472 39.4133 85.472 43.3165V46.7004H85.0919C83.9193 43.4879 81.6384 41.9003 78.3215 41.9003C73.1414 41.9003 70.2046 46.529 70.2046 51.8484C70.2046 57.2026 73.1414 61.7964 78.3215 61.7964ZM80.498 59.6548C77.8048 59.6548 75.7997 56.7528 75.7997 51.8484C75.7997 46.9761 77.8048 44.0768 80.498 44.0768C83.2607 44.0768 85.2311 46.9761 85.2311 51.8484C85.2311 56.7528 83.2607 59.6548 80.498 59.6548Z" fill="#C7A167"/>
<path d="M95.4195 61.3467H103.087V60.9666C102.466 60.1046 101.946 57.0634 101.946 52.0546V51.6048C101.946 47.4955 104.503 43.9725 107.231 43.9725C109.546 43.9725 110.997 45.4583 110.997 47.5303C110.997 49.0857 109.857 50.4323 108.336 50.4323C106.61 50.4323 105.469 48.5664 106.54 47.4607L106.23 47.3563C105.643 47.8061 105.228 48.6708 105.228 49.6024C105.228 52.0894 107.405 53.9553 110.098 53.9553C113.83 53.9553 116.038 51.5379 116.038 48.1166C116.038 44.5588 113.38 41.9004 109.338 41.9004C105.989 41.9004 103.571 43.8681 102.361 46.944H101.946V41.8308H101.601C100.115 42.8668 97.4915 43.3862 95.3499 43.4531V43.7985C95.9013 44.3178 96.4207 45.56 96.5224 48.8073V52.0546C96.5224 57.0634 96.0405 60.1046 95.4195 60.9666V61.3467Z" fill="#C7A167"/>
<path d="M128.057 61.7965C134.035 61.7965 138.316 57.8933 138.316 51.8484C138.316 45.8384 134.035 41.9004 128.057 41.9004C122.117 41.9004 117.799 45.8384 117.799 51.8484C117.799 57.8933 122.117 61.7965 128.057 61.7965ZM128.057 61.0014C125.294 61.0014 123.292 57.8933 123.292 51.8484C123.292 45.8036 125.294 42.7276 128.057 42.7276C130.823 42.7276 132.825 45.8036 132.825 51.8484C132.825 57.8933 130.823 61.0014 128.057 61.0014Z" fill="#C7A167"/>
<path d="M170.61 61.7966C174.722 61.7966 177.76 58.6189 177.76 54.092C177.76 50.6734 175.827 48.015 173.027 48.015C170.784 48.015 169.333 49.7069 169.333 51.6398C169.333 53.5057 170.885 54.9567 172.475 54.9567C172.856 54.9567 173.236 54.8523 173.477 54.7158V54.4052C172.51 54.5418 171.889 53.8163 171.889 52.7802C171.889 51.7442 172.682 50.6038 174.098 50.6038C175.792 50.6038 176.828 51.9851 176.828 53.7145C176.828 55.8535 175.067 57.4437 172.786 57.4437C168.227 57.4437 167.052 52.0895 165.188 48.2908L165.395 48.015C169.193 49.4312 173.857 46.7006 173.857 42.867C173.857 39.4484 170.99 37.1675 165.67 37.1675H151.268V37.5824C151.993 38.4471 152.579 41.5204 152.579 46.631V51.8834C152.579 56.9592 151.993 60.0699 151.268 60.9319V61.3469H160.56V60.9319C159.834 60.0699 159.109 56.9592 159.109 51.8834V37.9278H162.838C166.776 37.9278 168.401 40.3104 168.401 43.1775C168.401 45.6297 166.326 46.9763 164.599 46.9442C164.359 45.9403 163.459 45.4932 162.803 45.4932C161.837 45.4932 161.216 46.0447 161.216 46.805C161.216 47.6697 161.872 48.2908 162.838 48.2908C163.148 48.2908 163.563 48.1168 163.772 47.9106L164.083 48.1168C163.737 49.9479 162.838 51.8834 162.908 54.4721C163.079 58.7207 165.844 61.7966 170.61 61.7966Z" fill="#C7A167"/>
<path d="M191.228 61.7965C196.342 61.7965 199.45 59.3095 199.45 56.0274C199.45 53.7144 197.793 51.8484 195.407 51.8484C192.853 51.8484 191.437 53.5752 191.437 55.5776C191.437 56.1318 191.643 57.0286 191.954 57.4087L192.334 57.3739C192.093 56.4423 192.886 55.4063 194.235 55.4063C195.442 55.4063 196.411 56.3031 196.411 57.8237C196.411 59.6548 194.926 61.0014 192.508 61.0014C188.016 61.0014 184.943 56.9242 184.943 51.3639C184.943 51.1925 184.943 51.0533 184.978 50.9141C191.817 51.8136 198.864 51.0185 198.864 46.9092C198.864 44.1117 196.098 41.9004 190.401 41.9004C183.767 41.9004 179.484 45.8384 179.484 51.8484C179.484 58.2386 185.323 61.7965 191.228 61.7965ZM184.978 50.2234C185.288 45.56 187.671 42.6607 190.677 42.6607C193.475 42.6607 194.682 44.3178 194.717 46.3551C194.717 49.3614 190.433 50.6732 184.978 50.2234Z" fill="#C7A167"/>
<path d="M210.157 61.7965C215.027 61.7965 219.066 59.8957 219.066 55.923C219.066 49.1526 207.357 49.3614 207.357 45.319C207.357 43.7663 208.636 42.6607 211.434 42.6607C214.162 42.6607 216.132 44.9737 216.684 47.2546H216.994L217.583 43.247C216.132 42.6607 213.3 41.9004 210.087 41.9004C206.115 41.9004 202.418 43.3166 202.418 46.9092C202.418 52.6435 213.68 51.3639 213.68 57.2026C213.68 59.62 211.33 61.1058 209.118 61.1058C206.219 61.1058 204.594 59.6896 204.594 57.9629C204.594 56.6136 205.459 55.682 206.771 55.682C207.946 55.682 208.808 56.4075 208.706 57.3391H209.086C209.258 57.0634 209.397 56.5467 209.397 56.1666C209.397 54.5068 207.737 52.9541 205.494 52.9541C203.073 52.9541 201.21 54.5068 201.21 56.8921C201.21 59.7913 204.283 61.7965 210.157 61.7965Z" fill="#C7A167"/>
<path d="M229.808 61.7966C233.16 61.7966 235.473 60.0002 235.473 57.4088C235.473 55.1306 233.883 53.7814 232.156 53.7814C230.569 53.7814 229.428 55.1306 229.428 56.8225C229.428 57.4784 229.634 58.0995 229.773 58.3752H230.049C229.913 57.2027 230.569 56.3032 231.5 56.3032C232.467 56.3032 233.262 57.1331 233.262 58.4797C233.262 60.0698 232.26 61.1059 230.844 61.1059C229.083 61.1059 227.942 59.2051 227.942 56.7529V43.1078H234.367V42.3823H227.873V36.7524H227.493C226.872 39.6892 224.799 42.3823 221.001 42.3823H219.515V43.1078H222.486V54.6809C222.486 59.7566 225.525 61.7966 229.808 61.7966Z" fill="#C7A167"/>
</svg>
