<svg xmlns="http://www.w3.org/2000/svg" width="13" height="23" viewBox="0 0 23 23" fill="none">
  <path d="M9.17125 18.0358C8.98917 18.0358 8.80709 17.9687 8.66334 17.825L2.84625 12.0079C2.56834 11.73 2.56834 11.27 2.84625 10.9921L8.66334 5.17499C8.94126 4.89707 9.40126 4.89707 9.67917 5.17499C9.95709 5.45291 9.95709 5.91291 9.67917 6.19082L4.37 11.5L9.67917 16.8092C9.95709 17.0871 9.95709 17.5471 9.67917 17.825C9.54501 17.9687 9.35334 18.0358 9.17125 18.0358Z" fill="#fff"/>
  <path d="M19.6458 12.2188H3.51709C3.12417 12.2188 2.79834 11.8929 2.79834 11.5C2.79834 11.1071 3.12417 10.7812 3.51709 10.7812H19.6458C20.0388 10.7812 20.3646 11.1071 20.3646 11.5C20.3646 11.8929 20.0388 12.2188 19.6458 12.2188Z" fill="#fff"/>
</svg>