<svg xmlns="http://www.w3.org/2000/svg" width="13" height="23" viewBox="0 0 22 23" fill="none">
<path d="M13.2275 4.96418C13.4017 4.96418 13.5758 5.03126 13.7133 5.17501L19.2775 10.9921C19.5433 11.27 19.5433 11.73 19.2775 12.0079L13.7133 17.825C13.4475 18.1029 13.0075 18.1029 12.7417 17.825C12.4758 17.5471 12.4758 17.0871 12.7417 16.8092L17.82 11.5L12.7417 6.19084C12.4758 5.91293 12.4758 5.45293 12.7417 5.17501C12.87 5.03126 13.0533 4.96418 13.2275 4.96418Z" fill="white"/>
<path d="M3.2083 10.7812L18.6358 10.7812C19.0116 10.7812 19.3233 11.1071 19.3233 11.5C19.3233 11.8929 19.0116 12.2188 18.6358 12.2188L3.2083 12.2187C2.83247 12.2187 2.5208 11.8929 2.5208 11.5C2.5208 11.1071 2.83247 10.7812 3.2083 10.7812Z" fill="white"/>
</svg>
